<?xml version="1.0" encoding="utf-8"?>
<!-- Generator: Adobe Illustrator 17.0.0, SVG Export Plug-In . SVG Version: 6.00 Build 0)  -->
<!DOCTYPE svg PUBLIC "-//W3C//DTD SVG 1.1//EN" "http://www.w3.org/Graphics/SVG/1.1/DTD/svg11.dtd">
<svg version="1.1" id="Capa_1" xmlns="http://www.w3.org/2000/svg" xmlns:xlink="http://www.w3.org/1999/xlink" x="0px" y="0px"
	 width="71px" height="68px" viewBox="0 0 71 68" enable-background="new 0 0 71 68" xml:space="preserve">
<path fill="#F2B703" d="M64.536,10.828c0.004,0.004,0.004,0.004,0.008,0.008v49.774c-0.004,0.004-0.004,0.004-0.008,0.008H6.464
	c-0.004-0.004-0.004-0.004-0.008-0.008V10.836c0.004-0.004,0.004-0.004,0.008-0.008H64.536z M64.544,6.679H6.456
	c-2.281,0-4.149,1.868-4.149,4.149v49.79c0,2.281,1.868,4.149,4.149,4.149h58.089c2.281,0,4.149-1.868,4.149-4.149v-49.79
	C68.694,8.547,66.826,6.679,64.544,6.679L64.544,6.679z"/>
<path fill="#F2B703" d="M56.246,21.201c0,3.436-2.788,6.224-6.224,6.224s-6.224-2.788-6.224-6.224s2.788-6.224,6.224-6.224
	S56.246,17.765,56.246,21.201z"/>
<path fill="#F2B703" d="M60.395,56.469h-49.79v-8.298l14.522-24.895l16.597,20.746h4.149l14.522-12.448V56.469z"/>
<g>
</g>
<g>
</g>
<g>
</g>
<g>
</g>
<g>
</g>
<g>
</g>
</svg>
