<?xml version="1.0" encoding="utf-8"?>
<!-- Generator: Adobe Illustrator 17.0.0, SVG Export Plug-In . SVG Version: 6.00 Build 0)  -->
<!DOCTYPE svg PUBLIC "-//W3C//DTD SVG 1.1//EN" "http://www.w3.org/Graphics/SVG/1.1/DTD/svg11.dtd">
<svg version="1.1" id="Capa_1" xmlns="http://www.w3.org/2000/svg" xmlns:xlink="http://www.w3.org/1999/xlink" x="0px" y="0px"
	 width="71px" height="68px" viewBox="0 0 71 68" enable-background="new 0 0 71 68" xml:space="preserve">
<g>
	<g>
		<g>
			<path fill="#FFFFFF" stroke="#FFFFFF" stroke-width="2.4662" stroke-miterlimit="10" d="M0,11.843"/>
		</g>
	</g>
	<g>
		<g>
			<g>
				<path fill="#FFFFFF" d="M42.254,44.488c-0.293-0.147-0.594-0.28-0.878-0.443c-3.008-1.727-6.01-3.464-9.022-5.182
					c-0.475-0.271-0.854-0.618-1.193-1.04c-4.072-5.07-8.151-10.135-12.23-15.2c-0.076-0.095-0.172-0.174-0.26-0.26
					c-0.103-0.193-0.045-0.294,0.174-0.302c2.349,0.372,4.697,0.752,7.048,1.115c4.278,0.659,8.558,1.308,12.837,1.96
					c0.347,0.053,0.677,0.139,0.988,0.318c3.18,1.838,6.366,3.667,9.547,5.504c0.194,0.112,0.372,0.254,0.557,0.382
					c0.075,0.278,0.15,0.556,0.225,0.834c-0.582,0.873-0.93,0.963-1.828,0.447c-2.905-1.668-5.813-3.331-8.707-5.017
					c-0.544-0.317-1.101-0.519-1.721-0.612c-3.535-0.531-7.069-1.069-10.599-1.631c-0.539-0.086-0.847,0.008-1.125,0.525
					c-0.776,1.445-0.809,1.433,0.246,2.745c2.098,2.61,4.203,5.214,6.297,7.827c0.288,0.359,0.622,0.639,1.022,0.868
					c2.979,1.703,5.953,3.418,8.925,5.133c0.897,0.518,0.994,0.867,0.53,1.806C42.81,44.338,42.531,44.413,42.254,44.488z"/>
			</g>
		</g>
	</g>
	<g>
		<g>
			<g>
				<path fill="#FFFFFF" d="M34.629,32.418c-0.208-0.681,0.383-1.374,1.086-1.241c0.254,0.048,0.503,0.177,0.732,0.309
					c2.906,1.665,5.808,3.338,8.71,5.009c0.107,0.061,0.214,0.123,0.316,0.193c0.587,0.402,0.749,0.907,0.455,1.412
					c-0.292,0.502-0.851,0.648-1.45,0.306c-3.104-1.773-6.2-3.562-9.298-5.348C34.925,32.911,34.727,32.705,34.629,32.418z"/>
			</g>
		</g>
	</g>
	<g>
		<g>
			<g>
				<path fill="#FFFFFF" d="M33.195,34.891c-0.2-0.711,0.438-1.387,1.169-1.213c0.233,0.056,0.455,0.185,0.667,0.307
					c2.885,1.656,5.768,3.316,8.65,4.976c0.178,0.103,0.36,0.202,0.52,0.329c0.444,0.35,0.561,0.876,0.282,1.308
					c-0.298,0.461-0.72,0.584-1.23,0.383c-0.152-0.06-0.301-0.133-0.442-0.215c-2.956-1.698-5.91-3.398-8.864-5.1
					C33.624,35.48,33.314,35.276,33.195,34.891z"/>
			</g>
		</g>
	</g>
	<g>
		<g>
			<g>
				<path fill="#FFFFFF" d="M46.829,36.061c-0.356,0.084-0.668,0.004-0.961-0.165c-3.079-1.771-6.161-3.538-9.235-5.319
					c-0.617-0.358-0.775-0.946-0.451-1.456c0.312-0.492,0.828-0.586,1.457-0.225c3.082,1.767,6.159,3.543,9.238,5.313
					c0.406,0.233,0.677,0.542,0.604,1.042C47.424,35.649,47.188,35.917,46.829,36.061z"/>
			</g>
		</g>
	</g>
	<g>
		<g>
			<g>
				<g>
					<path fill="#FFFFFF" d="M33.033,51.069c-0.241,0.12-0.722,0.241-1.339,0.241c-1.429,0-2.505-0.903-2.505-2.565
						c0-1.587,1.076-2.663,2.648-2.663c0.631,0,1.03,0.136,1.203,0.226l-0.158,0.534c-0.248-0.12-0.602-0.21-1.023-0.21
						c-1.189,0-1.979,0.76-1.979,2.091c0,1.241,0.715,2.038,1.948,2.038c0.398,0,0.805-0.083,1.068-0.21L33.033,51.069z"/>
				</g>
			</g>
		</g>
		<g>
			<g>
				<g>
					<path fill="#FFFFFF" d="M34.507,46.165v2.121h2.452v-2.121h0.662v5.07h-0.662v-2.377h-2.452v2.377h-0.655v-5.07H34.507z"/>
				</g>
			</g>
		</g>
		<g>
			<g>
				<g>
					<path fill="#FFFFFF" d="M38.756,46.232c0.399-0.06,0.873-0.105,1.392-0.105c0.94,0,1.61,0.218,2.054,0.632
						c0.451,0.414,0.715,1,0.715,1.82c0,0.827-0.256,1.504-0.73,1.971c-0.474,0.474-1.256,0.73-2.242,0.73
						c-0.466,0-0.857-0.023-1.189-0.06V46.232z M39.411,50.716c0.165,0.03,0.406,0.038,0.662,0.038c1.4,0,2.159-0.782,2.159-2.151
						c0.008-1.196-0.67-1.956-2.054-1.956c-0.338,0-0.594,0.03-0.767,0.068V50.716z"/>
				</g>
			</g>
		</g>
		<g>
			<g>
				<g>
					<path fill="#FFFFFF" d="M43.518,49.534c-0.008-0.067-0.023-0.173-0.023-0.308c0-0.67,0.316-1.715,1.505-1.715
						c1.061,0,1.708,0.865,1.708,1.963s-0.67,1.835-1.791,1.835c-0.579,0-0.977-0.12-1.211-0.226l0.112-0.474
						c0.249,0.105,0.535,0.188,1.008,0.188c0.662,0,1.234-0.368,1.249-1.264L43.518,49.534L43.518,49.534z M46.068,49.061
						c-0.052-0.459-0.346-1.076-1.016-1.076c-0.744,0-0.925,0.654-0.917,1.076H46.068z"/>
				</g>
			</g>
		</g>
		<g>
			<g>
				<g>
					<path fill="#FFFFFF" d="M47.452,50.558c0.196,0.128,0.542,0.263,0.872,0.263c0.482,0,0.708-0.241,0.708-0.542
						c0-0.316-0.188-0.489-0.677-0.669c-0.655-0.233-0.963-0.594-0.963-1.031c0-0.587,0.473-1.068,1.256-1.068
						c0.369,0,0.692,0.105,0.895,0.226l-0.165,0.481c-0.143-0.09-0.407-0.21-0.745-0.21c-0.391,0-0.609,0.226-0.609,0.496
						c0,0.301,0.218,0.436,0.692,0.617c0.632,0.241,0.955,0.557,0.955,1.098c0,0.639-0.496,1.091-1.362,1.091
						c-0.398,0-0.767-0.098-1.023-0.248L47.452,50.558z"/>
				</g>
			</g>
		</g>
		<g>
			<g>
				<g>
					<path fill="#FFFFFF" d="M51.258,46.571c0.008,0.226-0.158,0.406-0.421,0.406c-0.233,0-0.399-0.181-0.399-0.406
						c0-0.233,0.173-0.414,0.414-0.414C51.099,46.157,51.258,46.338,51.258,46.571z M50.52,51.235v-3.641h0.662v3.641H50.52z"/>
				</g>
			</g>
		</g>
		<g>
			<g>
				<g>
					<path fill="#FFFFFF" d="M55.417,47.594c-0.015,0.263-0.03,0.557-0.03,1v2.114c0,0.835-0.165,1.347-0.519,1.663
						c-0.353,0.331-0.865,0.436-1.324,0.436c-0.436,0-0.918-0.105-1.211-0.301l0.165-0.504c0.241,0.15,0.617,0.286,1.068,0.286
						c0.677,0,1.173-0.354,1.173-1.271V50.61h-0.015c-0.203,0.338-0.594,0.609-1.158,0.609c-0.903,0-1.55-0.767-1.55-1.775
						c0-1.234,0.804-1.933,1.64-1.933c0.631,0,0.978,0.331,1.136,0.632h0.015l0.03-0.549H55.417z M54.733,49.031
						c0-0.113-0.008-0.21-0.037-0.301c-0.121-0.384-0.444-0.7-0.925-0.7c-0.632,0-1.083,0.534-1.083,1.376
						c0,0.715,0.361,1.309,1.076,1.309c0.406,0,0.775-0.256,0.917-0.677c0.037-0.113,0.053-0.241,0.053-0.354v-0.653H54.733z"/>
				</g>
			</g>
		</g>
		<g>
			<g>
				<g>
					<path fill="#FFFFFF" d="M56.44,48.579c0-0.376-0.008-0.685-0.03-0.985h0.587l0.038,0.602h0.015
						c0.18-0.346,0.602-0.685,1.203-0.685c0.504,0,1.286,0.301,1.286,1.549v2.174h-0.662v-2.099c0-0.587-0.218-1.076-0.843-1.076
						c-0.436,0-0.775,0.308-0.888,0.677c-0.03,0.083-0.045,0.196-0.045,0.309v2.189H56.44V48.579z"/>
				</g>
			</g>
		</g>
	</g>
	<g>
		<g>
			<g>
				<g>
					<path fill="#FFFFFF" d="M11.222,59.675c-0.278,0-0.558-0.089-0.794-0.273c-0.564-0.439-0.666-1.253-0.227-1.817l7.958-10.225
						c-6.55-4.22-10.416-10.678-10.416-17.526c0-3.501,0.966-6.854,2.872-9.965c0.272-0.444,0.783-0.682,1.297-0.604l4.044,0.61
						l-1.425-3.632c-0.197-0.504-0.061-1.077,0.342-1.438C20.063,10.163,27.464,7.5,35.18,7.5c7.277,0,14.13,2.29,19.297,6.448
						c5.249,4.225,8.14,9.866,8.14,15.886c0,2.179-0.384,4.333-1.142,6.402c-0.246,0.671-0.989,1.016-1.661,0.771
						c-0.671-0.246-1.016-0.989-0.771-1.661c0.652-1.783,0.983-3.637,0.983-5.511c0-10.887-11.147-19.745-24.848-19.745
						c-6.755,0-13.224,2.2-17.902,6.064l1.908,4.864c0.169,0.43,0.095,0.919-0.193,1.28c-0.288,0.362-0.749,0.542-1.205,0.473
						l-5.392-0.814c-1.369,2.488-2.063,5.133-2.063,7.878c0,6.338,3.882,12.338,10.384,16.049c0.326,0.186,0.555,0.505,0.628,0.873
						s-0.017,0.75-0.248,1.047l-8.851,11.372C11.989,59.503,11.608,59.675,11.222,59.675z"/>
				</g>
			</g>
			<g>
				<g>
					<g>
						<polygon fill="#FFFFFF" points="62.866,35.495 56.758,41.716 58.936,33.274 						"/>
					</g>
				</g>
			</g>
		</g>
	</g>
	<g>
		<g>
			<g>
				<path fill="#FFFFFF" d="M14.901,62.502c-0.278,0-0.558-0.089-0.794-0.273c-0.564-0.439-0.666-1.253-0.227-1.817l8.852-11.372
					c0.439-0.564,1.253-0.665,1.816-0.227c0.565,0.439,0.666,1.253,0.227,1.817l-8.852,11.372
					C15.668,62.33,15.286,62.502,14.901,62.502z"/>
			</g>
		</g>
	</g>
	<g>
		<g>
			<g>
				<path fill="#FFFFFF" d="M27.239,55.577c0,0.997-0.645,1.496-1.934,1.496c-0.112,0-0.225-0.005-0.34-0.015
					c-0.03,0.093-0.083,0.14-0.159,0.14c-0.043,0-0.08-0.012-0.11-0.035c-0.03-0.024-0.044-0.053-0.044-0.087
					c0,0.021,0.018-0.106,0.055-0.381c0.037-0.274,0.055-0.562,0.055-0.86c0-0.423-0.025-0.829-0.077-1.218
					c-0.097-0.02-0.146-0.075-0.146-0.167c0-0.063,0.035-0.112,0.105-0.147l-0.003-0.024c0-0.003-0.001-0.007-0.002-0.012
					s-0.001-0.009-0.001-0.011c0-0.093,0.054-0.14,0.161-0.14c0.089,0,0.142,0.04,0.159,0.12c0.225-0.044,0.434-0.066,0.626-0.066
					c0.528,0,0.937,0.122,1.224,0.366S27.239,55.128,27.239,55.577z M26.894,55.595c0-0.358-0.112-0.632-0.337-0.821
					c-0.225-0.188-0.549-0.283-0.975-0.283c-0.152,0-0.344,0.022-0.576,0.066c0.056,0.428,0.083,0.853,0.083,1.275
					c0,0.315-0.02,0.619-0.06,0.911c0.051,0.004,0.122,0.007,0.213,0.007c0.485,0,0.846-0.054,1.083-0.159
					C26.704,56.418,26.894,56.086,26.894,55.595z"/>
			</g>
			<g>
				<path fill="#FFFFFF" d="M28.943,55.768c0,0.297-0.043,0.607-0.13,0.932c-0.044,0.163-0.108,0.244-0.193,0.244
					c-0.088,0-0.132-0.05-0.132-0.149c0-0.023,0.001-0.04,0.003-0.051c-0.11,0.06-0.225,0.09-0.343,0.09
					c-0.209,0-0.372-0.06-0.49-0.178c-0.117-0.118-0.177-0.283-0.177-0.496c0-0.215,0.063-0.387,0.19-0.513s0.296-0.189,0.506-0.189
					c0.184,0,0.338,0.062,0.463,0.184C28.619,55.214,28.461,55,28.164,55c-0.066,0-0.137,0.02-0.213,0.06
					c-0.075,0.039-0.124,0.059-0.146,0.059c-0.037,0-0.07-0.015-0.1-0.045s-0.044-0.065-0.044-0.104
					c0-0.064,0.048-0.125,0.142-0.181c0.101-0.06,0.221-0.089,0.361-0.089C28.684,54.698,28.943,55.055,28.943,55.768z
					 M28.613,56.149c0-0.274-0.13-0.412-0.389-0.412c-0.284,0-0.426,0.136-0.426,0.409c0,0.275,0.141,0.413,0.423,0.413
					c0.122,0,0.219-0.036,0.288-0.108S28.613,56.278,28.613,56.149z"/>
			</g>
			<g>
				<path fill="#FFFFFF" d="M30.96,55.647c0,0.258-0.042,0.515-0.126,0.769c-0.052,0.158-0.116,0.237-0.192,0.237
					c-0.041,0-0.076-0.013-0.105-0.038s-0.044-0.056-0.044-0.092c0-0.01,0.026-0.108,0.078-0.297
					c0.052-0.188,0.078-0.374,0.078-0.56c0-0.422-0.132-0.633-0.396-0.633c-0.151,0-0.274,0.057-0.37,0.168
					c-0.099,0.115-0.148,0.267-0.148,0.455c0,0.105,0.016,0.252,0.045,0.439c0.03,0.188,0.045,0.322,0.045,0.402
					c0,0.187-0.054,0.28-0.159,0.28c-0.055,0-0.092-0.013-0.112-0.036c-0.017-0.019-0.03-0.057-0.041-0.114
					c-0.001-0.066-0.015-0.261-0.04-0.581c-0.045-0.449-0.067-0.768-0.067-0.956c0-0.329,0.063-0.493,0.19-0.493
					c0.041,0,0.076,0.013,0.105,0.038c0.029,0.026,0.044,0.056,0.044,0.089c0,0.024-0.006,0.069-0.02,0.135
					c-0.013,0.066-0.02,0.122-0.02,0.168v0.037c0.161-0.218,0.355-0.327,0.586-0.327c0.211,0,0.375,0.079,0.493,0.235
					C30.901,55.13,30.96,55.354,30.96,55.647z"/>
			</g>
			<g>
				<path fill="#FFFFFF" d="M33.085,54.293c0-0.006-0.006,0.075-0.02,0.244c-0.014,0.196-0.025,0.405-0.035,0.626
					c-0.013,0.318-0.019,0.658-0.019,1.018c0,0.074,0.001,0.149,0.002,0.227c0.001,0.078,0.002,0.119,0.002,0.123
					c0,0.161-0.052,0.242-0.154,0.242c-0.111,0-0.168-0.091-0.168-0.273c0-0.042,0.001-0.075,0.003-0.099
					c-0.204,0.201-0.441,0.302-0.711,0.302c-0.225,0-0.403-0.072-0.535-0.219c-0.131-0.146-0.197-0.346-0.197-0.601
					c0-0.347,0.096-0.627,0.287-0.84c0.19-0.214,0.441-0.32,0.751-0.32c0.144,0,0.293,0.033,0.446,0.099
					c0.008-0.3,0.018-0.479,0.031-0.539c0.023-0.11,0.084-0.166,0.18-0.166C33.039,54.116,33.085,54.175,33.085,54.293z
					 M32.721,55.139c-0.142-0.089-0.284-0.134-0.427-0.134c-0.221,0-0.395,0.076-0.522,0.229s-0.191,0.359-0.191,0.62
					c0,0.18,0.043,0.318,0.129,0.417c0.086,0.1,0.205,0.149,0.356,0.149c0.19,0,0.335-0.063,0.435-0.19
					c0.028-0.042,0.056-0.085,0.083-0.129c0.031-0.045,0.07-0.072,0.117-0.081C32.7,55.715,32.707,55.422,32.721,55.139z"/>
			</g>
			<g>
				<path fill="#FFFFFF" d="M35.252,55.571c0,0.318-0.093,0.572-0.279,0.762c-0.187,0.188-0.436,0.283-0.746,0.283
					c-0.258,0-0.46-0.088-0.606-0.264c-0.146-0.177-0.22-0.421-0.22-0.734c0-0.329,0.089-0.585,0.266-0.768
					c0.173-0.179,0.413-0.268,0.722-0.268c0.258,0,0.466,0.09,0.626,0.271C35.173,55.035,35.252,55.274,35.252,55.571z
					 M34.929,55.574c0-0.218-0.053-0.388-0.158-0.511c-0.106-0.123-0.25-0.185-0.434-0.185c-0.408,0-0.613,0.245-0.613,0.736
					c0,0.227,0.045,0.4,0.134,0.522s0.216,0.183,0.382,0.183c0.215,0,0.383-0.065,0.506-0.196
					C34.867,55.993,34.929,55.81,34.929,55.574z"/>
			</g>
			<g>
				<path fill="#FFFFFF" d="M38.145,54.612c0,0.037-0.015,0.072-0.044,0.103c-0.029,0.031-0.063,0.047-0.099,0.047
					c-0.009,0-0.068-0.025-0.178-0.075s-0.223-0.074-0.34-0.074c-0.183,0-0.312,0.075-0.385,0.226
					c-0.035,0.071-0.056,0.179-0.063,0.322c-0.005,0.151-0.009,0.303-0.013,0.455c0.294,0.023,0.489,0.048,0.583,0.071
					c0.126,0.032,0.188,0.086,0.188,0.161c0,0.042-0.011,0.077-0.033,0.104s-0.048,0.042-0.077,0.042
					c-0.018,0-0.092-0.012-0.225-0.034c-0.153-0.026-0.301-0.045-0.44-0.056c-0.016,0.487-0.033,0.788-0.05,0.902
					c-0.029,0.195-0.093,0.293-0.19,0.293c-0.104,0-0.156-0.061-0.156-0.181l0.034-0.333c0.023-0.231,0.038-0.464,0.042-0.698
					c-0.132-0.002-0.219-0.011-0.262-0.027c-0.054-0.021-0.081-0.063-0.081-0.13c0-0.094,0.05-0.14,0.149-0.14h0.007l0.19,0.006
					c0.004-0.144,0.008-0.287,0.011-0.431c0.007-0.135,0.021-0.237,0.042-0.307c0.113-0.364,0.351-0.547,0.713-0.547
					c0.2,0,0.366,0.032,0.497,0.097C38.085,54.467,38.145,54.535,38.145,54.612z"/>
			</g>
			<g>
				<path fill="#FFFFFF" d="M39.926,55.571c0,0.318-0.093,0.572-0.279,0.762c-0.187,0.188-0.436,0.283-0.746,0.283
					c-0.258,0-0.46-0.088-0.606-0.264c-0.146-0.177-0.22-0.421-0.22-0.734c0-0.329,0.089-0.585,0.266-0.768
					c0.173-0.179,0.413-0.268,0.722-0.268c0.258,0,0.466,0.09,0.626,0.271C39.847,55.035,39.926,55.274,39.926,55.571z
					 M39.603,55.574c0-0.218-0.053-0.388-0.158-0.511c-0.106-0.123-0.25-0.185-0.434-0.185c-0.408,0-0.613,0.245-0.613,0.736
					c0,0.227,0.045,0.4,0.134,0.522s0.216,0.183,0.382,0.183c0.215,0,0.383-0.065,0.506-0.196
					C39.541,55.993,39.603,55.81,39.603,55.574z"/>
			</g>
			<g>
				<path fill="#FFFFFF" d="M41.458,55.132c0,0.042-0.013,0.076-0.037,0.104c-0.025,0.028-0.055,0.042-0.09,0.042
					c-0.026,0-0.064-0.019-0.115-0.057s-0.097-0.057-0.139-0.057c-0.103,0-0.187,0.045-0.25,0.136
					c-0.063,0.09-0.096,0.212-0.096,0.366v0.213c0,0.237-0.025,0.426-0.075,0.565c-0.047,0.132-0.106,0.197-0.181,0.197
					c-0.099,0-0.147-0.049-0.147-0.146c0-0.02,0.015-0.091,0.046-0.216c0.03-0.124,0.045-0.24,0.045-0.35
					c0-0.304-0.043-0.547-0.13-0.729c-0.002-0.006-0.032-0.061-0.09-0.164c-0.029-0.054-0.043-0.096-0.043-0.127
					c0-0.035,0.017-0.067,0.05-0.098s0.07-0.046,0.109-0.046c0.114,0,0.21,0.142,0.286,0.423c0.112-0.217,0.276-0.325,0.492-0.325
					c0.108,0,0.196,0.025,0.264,0.076C41.424,54.991,41.458,55.056,41.458,55.132z"/>
			</g>
			<g>
				<path fill="#FFFFFF" d="M44.007,55.621c0,0.83-0.099,1.246-0.296,1.246c-0.076,0-0.114-0.048-0.114-0.144
					c0-0.001,0.019-0.125,0.056-0.371c0.037-0.247,0.056-0.492,0.056-0.737c0-0.409-0.097-0.613-0.29-0.613
					c-0.169,0-0.28,0.104-0.333,0.309c-0.04,0.158-0.061,0.47-0.061,0.934c0,0.071,0.006,0.15,0.017,0.236s0.017,0.137,0.017,0.152
					c0,0.107-0.051,0.161-0.153,0.161c-0.122,0-0.184-0.196-0.184-0.587c0-0.165,0.007-0.337,0.019-0.517
					c0.013-0.18,0.019-0.275,0.019-0.288c0-0.161-0.084-0.241-0.253-0.241c-0.158,0-0.273,0.071-0.345,0.213
					c-0.069,0.138-0.104,0.355-0.104,0.654c0,0.191,0.006,0.37,0.017,0.535s0.017,0.235,0.017,0.209
					c0,0.041-0.016,0.075-0.045,0.103c-0.03,0.027-0.068,0.04-0.115,0.04c-0.096,0-0.155-0.092-0.179-0.276
					c-0.007-0.053-0.011-0.19-0.011-0.412c0-0.465,0.038-0.909,0.113-1.332c0.025-0.139,0.05-0.23,0.075-0.276
					c0.029-0.055,0.076-0.083,0.142-0.083c0.102,0,0.152,0.055,0.152,0.163l-0.073,0.367c0.094-0.131,0.227-0.196,0.4-0.196
					c0.139,0,0.247,0.057,0.326,0.172c0.138-0.227,0.332-0.34,0.582-0.34C43.823,54.701,44.007,55.008,44.007,55.621z"/>
			</g>
			<g>
				<path fill="#FFFFFF" d="M45.827,55.768c0,0.297-0.043,0.607-0.13,0.932c-0.044,0.163-0.108,0.244-0.193,0.244
					c-0.088,0-0.132-0.05-0.132-0.149c0-0.023,0.001-0.04,0.003-0.051c-0.11,0.06-0.225,0.09-0.343,0.09
					c-0.209,0-0.372-0.06-0.49-0.178c-0.117-0.118-0.177-0.283-0.177-0.496c0-0.215,0.063-0.387,0.19-0.513s0.296-0.189,0.506-0.189
					c0.184,0,0.338,0.062,0.463,0.184C45.503,55.214,45.345,55,45.048,55c-0.066,0-0.137,0.02-0.213,0.06
					c-0.075,0.039-0.124,0.059-0.146,0.059c-0.037,0-0.07-0.015-0.1-0.045s-0.044-0.065-0.044-0.104
					c0-0.064,0.048-0.125,0.142-0.181c0.101-0.06,0.221-0.089,0.361-0.089C45.567,54.698,45.827,55.055,45.827,55.768z
					 M45.497,56.149c0-0.274-0.13-0.412-0.389-0.412c-0.284,0-0.426,0.136-0.426,0.409c0,0.275,0.141,0.413,0.423,0.413
					c0.122,0,0.219-0.036,0.288-0.108S45.497,56.278,45.497,56.149z"/>
			</g>
			<g>
				<path fill="#FFFFFF" d="M48.656,55.768c0,0.297-0.043,0.607-0.13,0.932c-0.044,0.163-0.108,0.244-0.193,0.244
					c-0.088,0-0.132-0.05-0.132-0.149c0-0.023,0.001-0.04,0.003-0.051c-0.11,0.06-0.225,0.09-0.343,0.09
					c-0.209,0-0.372-0.06-0.49-0.178c-0.117-0.118-0.177-0.283-0.177-0.496c0-0.215,0.063-0.387,0.19-0.513s0.296-0.189,0.506-0.189
					c0.184,0,0.338,0.062,0.463,0.184C48.332,55.214,48.174,55,47.877,55c-0.066,0-0.137,0.02-0.213,0.06
					c-0.075,0.039-0.124,0.059-0.146,0.059c-0.037,0-0.07-0.015-0.1-0.045s-0.044-0.065-0.044-0.104
					c0-0.064,0.048-0.125,0.142-0.181c0.101-0.06,0.221-0.089,0.361-0.089C48.396,54.698,48.656,55.055,48.656,55.768z
					 M48.326,56.149c0-0.274-0.13-0.412-0.389-0.412c-0.284,0-0.426,0.136-0.426,0.409c0,0.275,0.141,0.413,0.423,0.413
					c0.122,0,0.219-0.036,0.288-0.108S48.326,56.278,48.326,56.149z"/>
			</g>
			<g>
				<path fill="#FFFFFF" d="M51.421,55.238c0,0.037-0.012,0.069-0.036,0.097c-0.023,0.026-0.052,0.039-0.084,0.039
					c-0.017,0-0.078-0.021-0.187-0.063c-0.107-0.042-0.213-0.063-0.315-0.063c-0.033,0-0.067,0.002-0.103,0.006
					c-0.04,0.177-0.061,0.339-0.061,0.486c0,0.189,0.032,0.335,0.096,0.438c0.064,0.102,0.153,0.152,0.267,0.152
					c0.035,0,0.081-0.011,0.138-0.033s0.098-0.033,0.123-0.033c0.086,0,0.13,0.051,0.13,0.152c0,0.066-0.036,0.12-0.107,0.161
					s-0.169,0.062-0.293,0.062c-0.459,0-0.689-0.306-0.689-0.918c0-0.129,0.017-0.271,0.048-0.426
					c-0.03,0.004-0.096,0.017-0.197,0.037c-0.065,0.013-0.114,0.02-0.146,0.02c-0.116,0-0.175-0.044-0.175-0.133
					c0-0.122,0.2-0.201,0.601-0.237c0.082-0.262,0.183-0.393,0.302-0.393c0.037,0,0.068,0.014,0.095,0.04
					c0.025,0.026,0.039,0.059,0.039,0.097c0,0.028-0.009,0.063-0.024,0.106c-0.017,0.043-0.032,0.086-0.049,0.13
					C51.211,54.976,51.421,55.067,51.421,55.238z"/>
			</g>
			<g>
				<path fill="#FFFFFF" d="M53.393,56.594c0,0.052-0.016,0.096-0.047,0.132c-0.031,0.035-0.07,0.054-0.115,0.054
					c-0.086,0-0.158-0.132-0.217-0.396c-0.183,0.25-0.405,0.376-0.666,0.376c-0.433,0-0.648-0.346-0.648-1.036
					c0-0.354,0.023-0.662,0.069-0.925c0.028-0.162,0.098-0.244,0.207-0.244c0.039,0,0.073,0.015,0.103,0.044
					s0.044,0.063,0.044,0.103c0,0.035-0.017,0.169-0.048,0.403s-0.047,0.452-0.047,0.653c0,0.464,0.128,0.696,0.384,0.696
					c0.166,0,0.297-0.064,0.394-0.193c0.098-0.128,0.146-0.31,0.146-0.543v-0.097c0-0.362,0.01-0.596,0.028-0.698
					c0.025-0.147,0.087-0.222,0.182-0.222c0.091,0,0.137,0.063,0.137,0.19c0,0.022-0.005,0.105-0.014,0.247
					c-0.01,0.142-0.014,0.271-0.014,0.389c0,0.276,0.021,0.531,0.062,0.765S53.393,56.626,53.393,56.594z"/>
			</g>
			<g>
				<path fill="#FFFFFF" d="M55.035,54.992c0,0.108-0.055,0.163-0.165,0.163c-0.037,0-0.067-0.014-0.089-0.041
					c-0.016-0.025-0.031-0.051-0.047-0.076c-0.067-0.087-0.157-0.13-0.269-0.13c-0.192,0-0.288,0.108-0.288,0.326
					c0,0.076,0.018,0.141,0.053,0.195c0.029,0.047,0.081,0.1,0.157,0.157c0.171,0.132,0.278,0.222,0.32,0.271
					c0.089,0.103,0.133,0.22,0.133,0.352c0,0.174-0.056,0.314-0.169,0.424c-0.112,0.108-0.259,0.163-0.44,0.163
					c-0.172,0-0.313-0.045-0.424-0.135c-0.107-0.087-0.161-0.196-0.161-0.328c0-0.134,0.058-0.2,0.173-0.2
					c0.098,0,0.147,0.074,0.15,0.223c0.078,0.093,0.165,0.14,0.263,0.14c0.081,0,0.147-0.024,0.198-0.074
					c0.052-0.049,0.077-0.11,0.077-0.185c0-0.066-0.031-0.13-0.094-0.189c-0.001-0.003-0.081-0.066-0.239-0.19
					c-0.219-0.174-0.328-0.377-0.328-0.609c0-0.19,0.058-0.344,0.175-0.461c0.116-0.116,0.269-0.175,0.457-0.175
					c0.155,0,0.288,0.04,0.398,0.121C54.982,54.811,55.035,54.897,55.035,54.992z"/>
			</g>
			<g>
				<path fill="#FFFFFF" d="M56.729,54.908c0,0.653-0.023,1.136-0.07,1.448c-0.019,0.126-0.039,0.21-0.062,0.254
					c-0.029,0.057-0.077,0.086-0.142,0.086c-0.043,0-0.08-0.015-0.11-0.043c-0.03-0.029-0.046-0.063-0.046-0.104
					c0,0.005,0.009-0.032,0.026-0.112c0.021-0.091,0.037-0.194,0.05-0.311c0.018-0.165,0.026-0.349,0.026-0.553
					c0-0.089-0.001-0.183-0.003-0.281c-0.003-0.099-0.004-0.152-0.004-0.161c0-0.146,0.013-0.248,0.038-0.306
					c0.025-0.063,0.074-0.094,0.146-0.094C56.68,54.732,56.729,54.791,56.729,54.908z M56.799,54.288
					c0,0.154-0.075,0.231-0.226,0.231c-0.061,0-0.112-0.021-0.154-0.063c-0.041-0.042-0.063-0.094-0.063-0.153
					c0-0.064,0.023-0.12,0.068-0.165c0.046-0.046,0.102-0.068,0.168-0.068c0.062,0,0.111,0.02,0.149,0.06
					S56.799,54.223,56.799,54.288z"/>
			</g>
			<g>
				<path fill="#FFFFFF" d="M58.959,54.293c0-0.006-0.006,0.075-0.02,0.244c-0.014,0.196-0.025,0.405-0.035,0.626
					c-0.013,0.318-0.019,0.658-0.019,1.018c0,0.074,0.001,0.149,0.002,0.227c0.001,0.078,0.002,0.119,0.002,0.123
					c0,0.161-0.052,0.242-0.154,0.242c-0.111,0-0.168-0.091-0.168-0.273c0-0.042,0.001-0.075,0.003-0.099
					c-0.204,0.201-0.441,0.302-0.711,0.302c-0.225,0-0.403-0.072-0.535-0.219c-0.131-0.146-0.197-0.346-0.197-0.601
					c0-0.347,0.096-0.627,0.287-0.84c0.19-0.214,0.441-0.32,0.751-0.32c0.144,0,0.293,0.033,0.446,0.099
					c0.008-0.3,0.018-0.479,0.031-0.539c0.023-0.11,0.084-0.166,0.18-0.166C58.913,54.116,58.959,54.175,58.959,54.293z
					 M58.595,55.139c-0.142-0.089-0.284-0.134-0.427-0.134c-0.221,0-0.395,0.076-0.522,0.229s-0.191,0.359-0.191,0.62
					c0,0.18,0.043,0.318,0.129,0.417c0.086,0.1,0.205,0.149,0.356,0.149c0.19,0,0.335-0.063,0.435-0.19
					c0.028-0.042,0.056-0.085,0.083-0.129c0.031-0.045,0.07-0.072,0.117-0.081C58.574,55.715,58.581,55.422,58.595,55.139z"/>
			</g>
			<g>
				<path fill="#FFFFFF" d="M60.967,55.364c0,0.113-0.039,0.196-0.117,0.251c-0.034,0.023-0.145,0.055-0.33,0.093
					c-0.246,0.051-0.455,0.076-0.629,0.076c-0.079,0-0.175-0.006-0.286-0.017c0,0.409,0.155,0.613,0.467,0.613
					c0.086,0,0.163-0.024,0.232-0.073c0.034-0.024,0.097-0.082,0.187-0.174c0.033-0.034,0.067-0.051,0.103-0.051
					c0.046,0,0.085,0.018,0.118,0.052s0.05,0.076,0.05,0.126c0,0.041-0.016,0.079-0.048,0.113c-0.186,0.204-0.404,0.306-0.654,0.306
					c-0.519,0-0.777-0.3-0.777-0.898c0-0.31,0.082-0.576,0.247-0.8c0.188-0.255,0.419-0.383,0.695-0.383
					c0.216,0,0.394,0.072,0.533,0.217C60.897,54.959,60.967,55.143,60.967,55.364z M60.644,55.384
					c-0.007-0.15-0.046-0.27-0.118-0.357s-0.162-0.132-0.271-0.132c-0.141,0-0.265,0.051-0.372,0.151
					c-0.11,0.102-0.193,0.246-0.247,0.433c0.077,0.009,0.158,0.013,0.245,0.013C60.091,55.491,60.346,55.456,60.644,55.384z"/>
			</g>
			<g>
				<path fill="#FFFFFF" d="M62.645,55.768c0,0.297-0.043,0.607-0.13,0.932c-0.044,0.163-0.108,0.244-0.193,0.244
					c-0.088,0-0.132-0.05-0.132-0.149c0-0.023,0.001-0.04,0.003-0.051c-0.11,0.06-0.225,0.09-0.343,0.09
					c-0.209,0-0.372-0.06-0.49-0.178c-0.117-0.118-0.177-0.283-0.177-0.496c0-0.215,0.063-0.387,0.19-0.513s0.296-0.189,0.506-0.189
					c0.184,0,0.338,0.062,0.463,0.184C62.321,55.214,62.163,55,61.866,55c-0.066,0-0.137,0.02-0.213,0.06
					c-0.075,0.039-0.124,0.059-0.146,0.059c-0.037,0-0.07-0.015-0.1-0.045s-0.044-0.065-0.044-0.104
					c0-0.064,0.048-0.125,0.142-0.181c0.101-0.06,0.221-0.089,0.361-0.089C62.385,54.698,62.645,55.055,62.645,55.768z
					 M62.314,56.149c0-0.274-0.13-0.412-0.389-0.412c-0.284,0-0.426,0.136-0.426,0.409c0,0.275,0.141,0.413,0.423,0.413
					c0.122,0,0.219-0.036,0.288-0.108S62.314,56.278,62.314,56.149z"/>
			</g>
			<g>
				<path fill="#FFFFFF" d="M64.313,54.992c0,0.108-0.055,0.163-0.165,0.163c-0.037,0-0.067-0.014-0.089-0.041
					c-0.016-0.025-0.031-0.051-0.047-0.076c-0.067-0.087-0.157-0.13-0.269-0.13c-0.192,0-0.288,0.108-0.288,0.326
					c0,0.076,0.018,0.141,0.053,0.195c0.029,0.047,0.081,0.1,0.157,0.157c0.171,0.132,0.278,0.222,0.32,0.271
					c0.089,0.103,0.133,0.22,0.133,0.352c0,0.174-0.056,0.314-0.169,0.424c-0.112,0.108-0.259,0.163-0.44,0.163
					c-0.172,0-0.313-0.045-0.424-0.135c-0.107-0.087-0.161-0.196-0.161-0.328c0-0.134,0.058-0.2,0.173-0.2
					c0.098,0,0.147,0.074,0.15,0.223c0.078,0.093,0.165,0.14,0.263,0.14c0.081,0,0.147-0.024,0.198-0.074
					c0.052-0.049,0.077-0.11,0.077-0.185c0-0.066-0.031-0.13-0.094-0.189c-0.001-0.003-0.081-0.066-0.239-0.19
					c-0.219-0.174-0.328-0.377-0.328-0.609c0-0.19,0.058-0.344,0.175-0.461c0.116-0.116,0.269-0.175,0.457-0.175
					c0.155,0,0.288,0.04,0.398,0.121C64.26,54.811,64.313,54.897,64.313,54.992z"/>
			</g>
		</g>
	</g>
</g>
</svg>
